{
	"asset":{
		"generator":"Khronos glTF Blender I/O v4.1.63",
		"version":"2.0"
	},
	"scene":0,
	"scenes":[
		{
			"name":"Scene",
			"nodes":[
				0
			]
		}
	],
	"nodes":[
		{
			"mesh":0,
			"name":"Curve",
			"rotation":[
				0.7071068286895752,
				0,
				0,
				0.7071068286895752
			],
			"scale":[
				150.48199462890625,
				150.50198364257812,
				150.4818572998047
			]
		}
	],
	"animations":[
		{
			"channels":[
				{
					"sampler":0,
					"target":{
						"node":0,
						"path":"rotation"
					}
				}
			],
			"name":"CurveAction.001",
			"samplers":[
				{
					"input":4,
					"interpolation":"LINEAR",
					"output":5
				}
			]
		}
	],
	"materials":[
		{
			"doubleSided":true,
			"name":"Material.001",
			"pbrMetallicRoughness":{}
		}
	],
	"meshes":[
		{
			"name":"Curve",
			"primitives":[
				{
					"attributes":{
						"POSITION":0,
						"NORMAL":1,
						"TEXCOORD_0":2
					},
					"indices":3,
					"material":0
				}
			]
		}
	],
	"accessors":[
		{
			"bufferView":0,
			"componentType":5126,
			"count":2722,
			"max":[
				0.02119094505906105,
				0.0010170909808948636,
				0.0014298968017101288
			],
			"min":[
				-0.01597565785050392,
				-0.004398409277200699,
				-0.012167798355221748
			],
			"type":"VEC3"
		},
		{
			"bufferView":1,
			"componentType":5126,
			"count":2722,
			"type":"VEC3"
		},
		{
			"bufferView":2,
			"componentType":5126,
			"count":2722,
			"type":"VEC2"
		},
		{
			"bufferView":3,
			"componentType":5123,
			"count":5781,
			"type":"SCALAR"
		},
		{
			"bufferView":4,
			"componentType":5126,
			"count":251,
			"max":[
				8.333333333333334
			],
			"min":[
				0
			],
			"type":"SCALAR"
		},
		{
			"bufferView":5,
			"componentType":5126,
			"count":251,
			"type":"VEC4"
		}
	],
	"bufferViews":[
		{
			"buffer":0,
			"byteLength":32664,
			"byteOffset":0,
			"target":34962
		},
		{
			"buffer":0,
			"byteLength":32664,
			"byteOffset":32664,
			"target":34962
		},
		{
			"buffer":0,
			"byteLength":21776,
			"byteOffset":65328,
			"target":34962
		},
		{
			"buffer":0,
			"byteLength":11562,
			"byteOffset":87104,
			"target":34963
		},
		{
			"buffer":0,
			"byteLength":1004,
			"byteOffset":98668
		},
		{
			"buffer":0,
			"byteLength":4016,
			"byteOffset":99672
		}
	],
	"buffers":[
		{
			"byteLength":103688,
			"uri":"1107_GLASS_LOGO_ORANGERED_2.bin"
		}
	]
}
